<?xml version="1.0" encoding="UTF-8"?><svg id="illustrations" xmlns="http://www.w3.org/2000/svg" width="1630" height="732" viewBox="0 0 1630 732"><defs><style>.cls-1{fill:#314351;}.cls-1,.cls-2,.cls-3,.cls-4,.cls-5,.cls-6,.cls-7,.cls-8,.cls-9,.cls-10,.cls-11{stroke-width:0px;}.cls-2{fill:#195f88;}.cls-3{fill:#25333d;}.cls-4{fill:#ad4800;}.cls-5{fill:#b2e0f4;}.cls-6{fill:#009adb;}.cls-7{fill:#ff8f3d;}.cls-8{fill:#66c2e9;}.cls-9{fill:#fff;}.cls-10{fill:#ffbc8b;}.cls-11{fill:#ffddc4;}</style></defs><polygon class="cls-11" points="533.86 437.2 533.86 362.33 469.02 324.9 404.18 362.33 404.18 437.2 469.02 474.64 533.86 437.2"/><polygon class="cls-7" points="795.03 589.03 795.03 400.49 631.74 306.22 468.46 400.49 468.46 589.03 631.74 683.31 795.03 589.03"/><polygon class="cls-2" points="441.51 367.25 575.62 508.56 573.21 470.34 441.51 367.25"/><path class="cls-9" d="m441.51,367.25c3.87,3.87,81.43,131.7,81.43,131.7l111.37-64.96-192.8-66.74Z"/><polygon class="cls-6" points="573.21 470.34 575.62 508.56 594.86 456.42 441.51 367.25 573.21 470.34"/><path class="cls-11" d="m728.4,533.4c-12.73.4-54.88,1.24-54.88,1.24-5.52.17-10.05-4.55-9.42-10.26.51-4.58,4.52-7.97,9.12-8.12l19.73-.62"/><path class="cls-11" d="m746.19,551.23c-13.43.42-51.68,1.13-51.68,1.13-5.07.16-9.31-3.82-9.47-8.89-.16-5.07,3.82-9.31,8.89-9.47,0,0,28.09-.38,37.39-.67"/><path class="cls-11" d="m705.05,561.96c-.03-.25-.05-.5-.05-.75-.16-5.07,3.82-9.31,8.89-9.47,0,0,16.66-.23,25.39-.5l1.98,22.56-32.61-2.96-3.95-8.89"/><path class="cls-9" d="m810.14,553.06c-3.87-1.36-5.84-2.48-5.84-2.48l-131.23-70.83c-3.86-2.21-8.86-.8-10.95,3.32-1.71,3.39-.57,7.54,2.42,9.87,13.77,10.75,46.72,36.61,58.97,47.68,2.53,2.29,4.34,5.29,5.62,8.24,2.37,5.44-.92,11.67-6.73,12.86l-47.32,2.8c-4.53.29-8.02,4.13-7.87,8.67.12,3.87,2.87,7.16,6.66,7.97l50.07,13.02s32.32,17.34,64.18,10.6c0,0,9.85,6.16,22.03,17.31"/><path class="cls-1" d="m635.2,467.68c-.16,0-.33-.04-.48-.12l-14.22-7.76c-.48-.26-.66-.87-.4-1.36.26-.48.87-.66,1.36-.4l14.22,7.76c.48.26.66.87.4,1.36-.18.33-.52.52-.88.52Z"/><path class="cls-1" d="m599.78,448.36c-.16,0-.33-.04-.48-.12l-21.91-11.95c-.48-.26-.66-.87-.4-1.36.26-.48.87-.66,1.36-.4l21.91,11.95c.48.26.66.87.4,1.36-.18.33-.52.52-.88.52Z"/><path class="cls-1" d="m644.13,494.28c-.16,0-.33-.04-.48-.12l-44.31-24.17.96-1.76,44.31,24.17c.48.26.66.87.4,1.36-.18.33-.52.52-.88.52Z"/><path class="cls-1" d="m657.48,537.61c-.16,0-.33-.04-.48-.12l-11.81-6.44c-.48-.26-.66-.87-.4-1.36.26-.48.87-.66,1.36-.4l11.81,6.44c.48.26.66.87.4,1.36-.18.33-.52.52-.88.52Z"/><path class="cls-1" d="m635.01,525.36c-.16,0-.33-.04-.48-.12l-35.2-19.2c-.48-.26-.66-.87-.4-1.36.26-.48.87-.66,1.36-.4l35.2,19.2c.48.26.66.87.4,1.36-.18.33-.52.52-.88.52Z"/><polygon class="cls-5" points="795.22 367.27 887.5 314 887.5 313.86 794.93 260.42 702.36 313.86 702.36 420.75 794.93 474.19 795.22 474.02 795.22 367.27"/><polygon class="cls-8" points="887.5 420.95 887.5 313.99 795.07 367.37 795.07 474.33 887.5 420.95"/><polygon class="cls-5" points="50.66 468.12 50.66 439.25 25.66 424.82 .66 439.25 .66 468.12 25.66 482.55 50.66 468.12"/><path class="cls-3" d="m50.69,486.61c-.17,0-.35-.04-.5-.13l-13.83-7.98c-.31-.18-.5-.51-.5-.87v-15.97c0-.36.19-.69.5-.87l13.83-7.98c.31-.18.69-.18,1,0l13.83,7.98c.31.18.5.51.5.87v15.97c0,.36-.19.69-.5.87l-13.83,7.98c-.15.09-.33.13-.5.13Zm-12.83-9.56l12.83,7.41,12.83-7.41v-14.82l-12.83-7.41-12.83,7.41v14.82Zm26.66.58h.01-.01Z"/><path class="cls-3" d="m1026.08,365.16c-.17,0-.35-.04-.5-.13l-12.39-7.15c-.31-.18-.5-.51-.5-.87v-14.3c0-.36.19-.69.5-.87l12.39-7.15c.31-.18.69-.18,1,0l12.39,7.15c.31.18.5.51.5.87v14.3c0,.36-.19.69-.5.87l-12.39,7.15c-.15.09-.33.13-.5.13Zm-11.39-8.73l11.39,6.57,11.39-6.57v-13.15l-11.39-6.57-11.39,6.57v13.15Zm23.77.58h.01-.01Z"/><polygon class="cls-8" points="240.45 419.77 240.45 407.73 230.02 401.71 219.6 407.73 219.6 419.77 230.02 425.79 240.45 419.77"/><polygon class="cls-7" points="401.84 595.1 401.84 521.67 338.24 484.95 274.65 521.67 274.65 595.1 338.24 631.82 401.84 595.1"/><path class="cls-10" d="m350.21,599.48v-.41c0,5.2-4.18,9.41-9.34,9.41h-7.24c-5.16,0-9.34-4.21-9.34-9.41v.41"/><path class="cls-3" d="m350.8,528.94c-.35,0-.68-.18-.87-.5l-12.68-21.96-12.68,21.96c-.28.48-.89.64-1.37.37-.48-.28-.64-.89-.37-1.37l13.54-23.46c.36-.62,1.37-.62,1.73,0l13.54,23.46c.28.48.11,1.09-.37,1.37-.16.09-.33.13-.5.13Z"/><path class="cls-9" d="m332.74,527.94c0,2.48-2.02,4.49-4.5,4.49s-4.49-2.01-4.5-4.49h-.03v55.28h9.03v-55.28h0Z"/><path class="cls-9" d="m332.75,584.22h-9.03c-.55,0-1-.45-1-1v-55.28c0-.55.45-1,1-1s1.03.45,1.03,1c0,1.92,1.57,3.49,3.5,3.49s3.49-1.57,3.5-3.49c0-.55.45-1,1-1h0c.55,0,1,.45,1,1v55.28c0,.55-.45,1-1,1Zm-8.03-2h7.03v-50.06c-.95.79-2.18,1.27-3.51,1.27s-2.57-.48-3.53-1.28v50.08Z"/><path class="cls-9" d="m341.75,527.94c0,2.48-2.01,4.49-4.49,4.49s-4.49-2.01-4.49-4.49h-.02v55.28h9.03v-55.28h-.03Z"/><path class="cls-9" d="m341.78,584.22h-9.03c-.55,0-1-.45-1-1v-55.28c0-.55.45-1,1-1s1.02.45,1.02,1c0,1.92,1.57,3.49,3.49,3.49s3.49-1.57,3.49-3.49c0-.55.45-1,1-1h.03c.55,0,1,.45,1,1v55.28c0,.55-.45,1-1,1Zm-8.03-2h7.03v-50.07c-.95.8-2.18,1.28-3.52,1.28s-2.56-.48-3.51-1.27v50.07Z"/><path class="cls-9" d="m350.79,527.94s0,.07,0,.1c0,2.49-2.02,4.51-4.51,4.51s-4.51-2.02-4.51-4.51c0-.03,0-.07,0-.1h0v55.28h9.03v-55.28h-.01Z"/><path class="cls-9" d="m350.8,584.22h-9.03c-.55,0-1-.45-1-1v-55.28c0-.55.45-1,1-1,.27,0,.53.11.72.3.19.19.3.45.29.72,0,.01,0,.09,0,.11,0,1.91,1.58,3.48,3.51,3.48s3.51-1.57,3.51-3.51c0-.55.44-1.1.99-1.1h.01c.55,0,1,.45,1,1v55.28c0,.55-.45,1-1,1Zm-8.03-2h7.03v-49.94c-.95.79-2.18,1.27-3.52,1.27s-2.56-.48-3.52-1.27v49.94Zm8.02-54.28h.01-.01Z"/><path class="cls-3" d="m342.25,514.25h-9.98c-.55,0-1-.45-1-1s.45-1,1-1h9.98c.55,0,1,.45,1,1s-.45,1-1,1Z"/><path class="cls-3" d="m350.79,600.25h-27.07c-.55,0-1-.45-1-1v-16.03c0-.55.45-1,1-1h27.07c.55,0,1,.45,1,1v16.03c0,.55-.45,1-1,1Zm-26.07-2h25.07v-14.03h-25.07v14.03Z"/><path class="cls-3" d="m331.61,595.55h-3.6c-.55,0-1-.45-1-1s.45-1,1-1h3.6c.55,0,1,.45,1,1s-.45,1-1,1Z"/><path class="cls-3" d="m339.2,595.55h-3.6c-.55,0-1-.45-1-1s.45-1,1-1h3.6c.55,0,1,.45,1,1s-.45,1-1,1Z"/><path class="cls-3" d="m346.79,595.55h-3.6c-.55,0-1-.45-1-1s.45-1,1-1h3.6c.55,0,1,.45,1,1s-.45,1-1,1Z"/><path class="cls-3" d="m332.74,584.28c-.55,0-1-.45-1-1v-55.34c0-.55.45-1,1-1s1,.45,1,1v55.34c0,.55-.45,1-1,1Z"/><path class="cls-3" d="m341.75,584.28c-.55,0-1-.45-1-1v-55.34c0-.55.45-1,1-1s1,.45,1,1v55.34c0,.55-.45,1-1,1Z"/><path class="cls-2" d="m154.39,533.5v-21.1c-12.34,0-22.19,10.68-20.8,23.31,1.04,9.46,8.56,17.15,18,18.38,6.32.82,12.17-1.18,16.48-4.91l-13.68-15.68Z"/><path class="cls-5" d="m168.3,517.69l-13.87,15.85,13.64,15.63c4.44-3.84,7.26-9.51,7.26-15.84s-2.72-11.81-7.03-15.64Z"/><path class="cls-7" d="m154.39,512.39v21.1l.04.04,13.87-15.85c-3.7-3.29-8.57-5.29-13.91-5.29Z"/><path class="cls-3" d="m986.63,492.08c-.17,0-.35-.04-.5-.13l-39.87-23.02c-.31-.18-.5-.51-.5-.87v-46.04c0-.36.19-.69.5-.87l39.87-23.02c.31-.18.69-.18,1,0l39.87,23.02c.31.18.5.51.5.87v46.04c0,.36-.19.69-.5.87l-39.87,23.02c-.15.09-.33.13-.5.13Zm-38.87-24.6l38.87,22.44,38.87-22.44v-44.89l-38.87-22.44-38.87,22.44v44.89Zm78.75.58h.01-.01Z"/><path class="cls-10" d="m1007,447.6v-3.05l-5.28-1.68c-.43-2.01-1.23-3.88-2.33-5.54l2.57-4.96-2.16-2.16-5,2.59c-1.64-1.07-3.49-1.85-5.47-2.26l-1.71-5.38h-3.05l-1.71,5.38c-1.98.41-3.83,1.19-5.47,2.26l-5-2.59-2.16,2.16,2.57,4.96c-1.1,1.65-1.91,3.53-2.33,5.54l-5.28,1.68v3.05l5.23,1.66c.4,2.06,1.2,3.99,2.32,5.68l-2.5,4.83,2.16,2.16,4.8-2.48c1.71,1.15,3.66,1.98,5.75,2.4l1.63,5.13h3.05l1.63-5.13c2.09-.42,4.04-1.25,5.75-2.4l4.8,2.48,2.16-2.16-2.5-4.83c1.11-1.7,1.91-3.62,2.32-5.68l5.23-1.66Zm-20.8,2.55c-2.32,0-4.2-1.88-4.2-4.2s1.88-4.2,4.2-4.2,4.2,1.88,4.2,4.2-1.88,4.2-4.2,4.2Z"/><polygon class="cls-10" points="1514.92 370.23 1514.92 303.27 1456.93 269.79 1398.95 303.27 1398.95 370.23 1456.93 403.71 1514.92 370.23"/><path class="cls-11" d="m1451.65,316.56h-.03s-2.82,7.52-2.82,7.52c-3.03,8.09-3.72,16.86-2.01,25.32l8.51,42.08c.05.56.54.99,1.14.99s1.08-.43,1.13-.99l8.5-41.88c1.74-8.56,1.01-17.45-2.1-25.61-1.38-3.62-2.56-6.77-2.7-7.34"/><path class="cls-11" d="m1456.43,392.97c-.86,0-1.56-.62-1.63-1.44l-8.5-42.03c-1.73-8.56-1.03-17.41,2.04-25.6l2.94-7.85h.35v.51s.47.17.47.17l-2.82,7.52c-3,8.01-3.69,16.67-1.99,25.05l8.51,42.08c.03.35.31.59.64.59s.61-.23.64-.53l8.51-41.93c1.72-8.48,1-17.24-2.08-25.33-2.53-6.63-2.67-7.21-2.72-7.4l.97-.25c.08.33.61,1.85,2.69,7.29,3.15,8.27,3.88,17.22,2.12,25.89l-8.5,41.88c-.07.77-.77,1.39-1.62,1.39Z"/><path class="cls-7" d="m1451.62,316.56l-2.82,7.52c-1.01,2.69-1.75,5.46-2.24,8.27h19.71c-.5-2.84-1.27-5.64-2.3-8.36-1.38-3.62-2.56-6.77-2.7-7.34l-9.61-.09s-.03,0-.03,0Z"/><path class="cls-9" d="m1470.53,304.99c-.75,7.1-6.11,12.92-13.65,12.92s-14.37-5.82-13.65-12.92c.94-9.21,9.87-8.04,12.55-12.62,3.61-6.19.31-11.73.31-11.73,0,0,6.9,2.38,11.29,8.91,3.31,4.93,3.61,10.99,3.14,15.44Z"/><path class="cls-10" d="m1459.33,314.29c-.37,0-.73-.21-.9-.57-.24-.5-.02-1.1.48-1.33,4.66-2.21,7.38-7.28,6.91-12.91-.05-.55.36-1.03.91-1.08.55-.05,1.03.36,1.08.91.54,6.47-2.62,12.31-8.04,14.88-.14.07-.28.1-.43.1Z"/><path class="cls-3" d="m154.49,575.23c-.17,0-.35-.04-.5-.13l-35.48-20.48c-.31-.18-.5-.51-.5-.87v-40.97c0-.36.19-.69.5-.87l35.48-20.48c.31-.18.69-.18,1,0l35.48,20.48c.31.18.5.51.5.87v40.97c0,.36-.19.69-.5.87l-35.48,20.48c-.15.09-.33.13-.5.13Zm-34.48-22.06l34.48,19.91,34.48-19.91v-39.81l-34.48-19.91-34.48,19.91v39.81Zm69.96.58h.01-.01Z"/><polygon class="cls-5" points="1183.87 381.8 1201.82 371.44 1201.82 371.42 1183.82 361.02 1165.81 371.42 1165.81 392.21 1183.82 402.6 1183.87 402.57 1183.87 381.8"/><polygon class="cls-8" points="1201.88 392.16 1201.88 371.39 1183.93 381.75 1183.93 402.52 1201.88 392.16"/><polygon class="cls-11" points="119.35 554.62 132.72 546.9 132.72 546.88 119.31 539.13 105.89 546.88 105.89 562.37 119.31 570.12 119.35 570.09 119.35 554.62"/><polygon class="cls-10" points="132.77 562.34 132.77 546.86 119.4 554.58 119.4 570.06 132.77 562.34"/><polygon class="cls-6" points="794.66 260.45 794.66 193.46 736.65 159.97 678.63 193.46 678.63 260.45 736.65 293.94 794.66 260.45"/><rect class="cls-5" x="705.85" y="197.45" width="61.44" height="61.44"/><path class="cls-2" d="m731.82,214.46h-13.95v-8.67h37.56v8.67h-14.02v36.12h-9.58v-36.12Z"/><rect class="cls-2" x="763.96" y="194.31" width="6.45" height="6.45" transform="translate(964.73 -569.65) rotate(90)"/><rect class="cls-2" x="702.69" y="194.31" width="6.45" height="6.45" transform="translate(903.46 -508.38) rotate(90)"/><rect class="cls-2" x="763.96" y="255.59" width="6.45" height="6.45" transform="translate(1026.01 -508.37) rotate(90)"/><rect class="cls-2" x="702.69" y="255.59" width="6.45" height="6.45" transform="translate(964.74 -447.1) rotate(90)"/><path class="cls-9" d="m814.37,415.6c0-3.61-2.93-6.54-6.54-6.54-.5,0-.98.06-1.45.16.09-.66.14-1.34.14-2.03,0-8.26-6.69-14.95-14.95-14.95-.93,0-1.85.09-2.74.25-3.11-8.36-11.16-14.31-20.61-14.31-11.5,0-20.93,8.83-21.9,20.07-1.53-.67-3.22-1.04-5-1.04-6.89,0-12.47,5.58-12.47,12.47s5.58,12.47,12.47,12.47c.06,0,.13,0,.19,0h0s66.38,0,66.38,0h0c3.58-.04,6.48-2.95,6.48-6.54Z"/><path class="cls-5" d="m134.46,670.2c0-4.36,3.53-7.89,7.89-7.89.6,0,1.19.07,1.75.2-.11-.8-.17-1.62-.17-2.45,0-9.96,8.07-18.03,18.03-18.03,1.13,0,2.23.1,3.3.3,3.75-10.08,13.46-17.26,24.85-17.26,13.86,0,25.24,10.64,26.41,24.2,1.85-.81,3.88-1.26,6.02-1.26,8.31,0,15.04,6.73,15.04,15.04,0,8.31-6.73,15.04-15.04,15.04-.08,0-.15,0-.23,0h0s-80.05,0-80.05,0h0c-4.32-.04-7.81-3.56-7.81-7.89Z"/><path class="cls-8" d="m829.61,78.25c0-2.05-1.66-3.71-3.71-3.71-.28,0-.56.03-.82.09.05-.38.08-.76.08-1.15,0-4.68-3.79-8.47-8.47-8.47-.53,0-1.05.05-1.55.14-1.76-4.74-6.32-8.11-11.68-8.11-6.51,0-11.86,5-12.41,11.37-.87-.38-1.82-.59-2.83-.59-3.9,0-7.06,3.16-7.06,7.06s3.16,7.06,7.06,7.06c.04,0,.07,0,.11,0h0s37.61,0,37.61,0h0c2.03-.02,3.67-1.67,3.67-3.71Z"/><polygon class="cls-10" points="666.24 326.84 666.24 285.93 630.81 265.47 595.37 285.93 595.37 326.84 630.81 347.3 666.24 326.84"/><path class="cls-9" d="m653.17,306.39s-10.01,13.59-22.37,13.59-22.37-13.59-22.37-13.59c0,0,10.01-13.59,22.37-13.59s22.37,13.59,22.37,13.59Z"/><circle class="cls-8" cx="630.81" cy="306.39" r="13.6"/><circle class="cls-4" cx="630.81" cy="306.39" r="5.62"/><path class="cls-3" d="m1240.46,534.24c-.17,0-.35-.04-.5-.13l-36.81-21.25c-.31-.18-.5-.51-.5-.87v-42.5c0-.36.19-.69.5-.87l36.81-21.25c.31-.18.69-.18,1,0l36.81,21.25c.31.18.5.51.5.87v42.5c0,.36-.19.69-.5.87l-36.81,21.25c-.15.09-.33.13-.5.13Zm-35.81-22.83l35.81,20.67,35.81-20.67v-41.35l-35.81-20.67-35.81,20.67v41.35Zm72.61.58h.01-.01Z"/><path class="cls-8" d="m1221.08,474.4h38.76v17.55c0,8.35-6.78,15.12-15.12,15.12h-8.52c-8.35,0-15.12-6.78-15.12-15.12v-17.55h0Z"/><path class="cls-8" d="m1262.3,478.4c1.92,0,3.47,1.56,3.47,3.47s-1.56,3.47-3.47,3.47h-2.51v-6.95h2.51m0-4h-6.51v14.95h6.51c4.13,0,7.47-3.35,7.47-7.47s-3.35-7.47-7.47-7.47h0Z"/><path class="cls-3" d="m382.08,496.33c-.17,0-.35-.04-.5-.13l-44.27-25.56c-.31-.18-.5-.51-.5-.87v-51.12c0-.36.19-.69.5-.87l44.27-25.56c.31-.18.69-.18,1,0l44.27,25.56c.31.18.5.51.5.87v51.12c0,.36-.19.69-.5.87l-44.27,25.56c-.15.09-.33.13-.5.13Zm-43.27-27.14l43.27,24.98,43.27-24.98v-49.96l-43.27-24.98-43.27,24.98v49.96Zm87.54.58h.01-.01Z"/><path class="cls-6" d="m392.69,432.12v-5.43l-9.39-2.98c-.76-3.58-2.19-6.91-4.15-9.85l4.57-8.83-3.84-3.84-8.89,4.61c-2.92-1.9-6.2-3.29-9.73-4.01l-3.04-9.57h-5.43l-3.04,9.57c-3.53.73-6.81,2.11-9.73,4.01l-8.89-4.61-3.84,3.84,4.57,8.83c-1.97,2.94-3.39,6.27-4.15,9.85l-9.39,2.98v5.43l9.31,2.95c.72,3.67,2.14,7.09,4.12,10.11l-4.45,8.6,3.84,3.84,8.53-4.42c3.04,2.05,6.51,3.52,10.23,4.27l2.9,9.12h5.43l2.9-9.12c3.73-.75,7.19-2.22,10.23-4.27l8.53,4.42,3.84-3.84-4.45-8.6c1.98-3.02,3.41-6.44,4.12-10.11l9.31-2.95Zm-36.99,4.54c-4.13,0-7.47-3.34-7.47-7.47s3.34-7.47,7.47-7.47,7.47,3.34,7.47,7.47-3.34,7.47-7.47,7.47Z"/><path class="cls-7" d="m857.05,631.39v-4.21l-7.28-2.31c-.59-2.77-1.69-5.35-3.22-7.63l3.54-6.84-2.98-2.98-6.89,3.57c-2.26-1.47-4.81-2.55-7.54-3.11l-2.35-7.41h-4.21l-2.35,7.41c-2.73.56-5.28,1.63-7.54,3.11l-6.89-3.57-2.98,2.98,3.54,6.84c-1.52,2.28-2.63,4.86-3.22,7.63l-7.28,2.31v4.21l7.21,2.29c.55,2.85,1.66,5.49,3.19,7.83l-3.45,6.66,2.98,2.98,6.61-3.42c2.36,1.59,5.04,2.73,7.93,3.31l2.24,7.07h4.21l2.24-7.07c2.89-.58,5.57-1.72,7.93-3.31l6.61,3.42,2.98-2.98-3.45-6.66c1.54-2.34,2.64-4.99,3.19-7.83l7.21-2.29Zm-28.66,3.52c-3.2,0-5.79-2.59-5.79-5.79s2.59-5.79,5.79-5.79,5.79,2.59,5.79,5.79-2.59,5.79-5.79,5.79Z"/><polygon class="cls-5" points="553.82 674.55 553.82 575.73 468.23 526.32 382.65 575.73 382.65 674.55 468.23 723.97 553.82 674.55"/><rect class="cls-7" x="503.42" y="587.21" width="19.1" height="4.38"/><rect class="cls-7" x="503.42" y="606.91" width="19.02" height="4.38"/><rect class="cls-7" x="503.42" y="626.6" width="18.46" height="4.38"/><rect class="cls-7" x="503.42" y="646.3" width="30.57" height="4.38"/><path class="cls-1" d="m424.77,687.16c-.55,0-1-.45-1-1v-106.23c0-.55.45-1,1-1h141.48c.55,0,1,.45,1,1s-.45,1-1,1h-140.48v105.23c0,.55-.45,1-1,1Z"/><path class="cls-1" d="m538.54,600.54h-113.77c-.55,0-1-.45-1-1s.45-1,1-1h113.77c.55,0,1,.45,1,1s-.45,1-1,1Z"/><path class="cls-1" d="m538.49,620.16h-113.72c-.55,0-1-.45-1-1s.45-1,1-1h113.72c.55,0,1,.45,1,1s-.45,1-1,1Z"/><path class="cls-1" d="m538.49,639.77h-113.72c-.55,0-1-.45-1-1s.45-1,1-1h113.72c.55,0,1,.45,1,1s-.45,1-1,1Z"/><path class="cls-1" d="m538.49,659.38h-113.72c-.55,0-1-.45-1-1s.45-1,1-1h113.72c.55,0,1,.45,1,1s-.45,1-1,1Z"/><path class="cls-1" d="m538.49,678.99h-113.72c-.55,0-1-.45-1-1s.45-1,1-1h113.72c.55,0,1,.45,1,1s-.45,1-1,1Z"/><circle class="cls-6" cx="436.21" cy="589.37" r="3.45"/><rect class="cls-2" x="447.65" y="587.2" width="22.77" height="4.36"/><circle class="cls-6" cx="436.21" cy="608.99" r="3.45"/><rect class="cls-2" x="447.65" y="606.81" width="43.43" height="4.36"/><circle class="cls-6" cx="436.21" cy="628.6" r="3.45"/><rect class="cls-2" x="447.65" y="626.42" width="32.76" height="4.36"/><circle class="cls-6" cx="436.21" cy="648.21" r="3.45"/><rect class="cls-2" x="447.11" y="645.49" width="12.04" height="4.36"/><circle class="cls-6" cx="436.21" cy="667.82" r="3.45"/><rect class="cls-2" x="447.65" y="665.64" width="43.43" height="4.36"/><rect class="cls-7" x="503.42" y="666" width="15.52" height="4.38"/><path class="cls-8" d="m793.02,635.14c-1.17-6.66-3.78-12.81-7.51-18.13l2.63-7.33-6.47-6.47-7.33,2.63c-5.32-3.73-11.48-6.34-18.13-7.51l-3.32-7.04h-9.15l-3.32,7.04c-6.66,1.17-12.81,3.78-18.13,7.51l-7.33-2.63-6.47,6.47,2.63,7.33c-3.73,5.32-6.34,11.48-7.51,18.13l-7.04,3.32v9.15l7.04,3.32c1.17,6.66,3.78,12.81,7.51,18.13l-2.63,7.33,6.47,6.47,7.33-2.63c5.32,3.73,11.48,6.34,18.13,7.51l3.32,7.04h9.15l3.32-7.04c6.66-1.17,12.81-3.78,18.13-7.51l7.33,2.63,6.47-6.47-2.63-7.33c3.73-5.32,6.34-11.48,7.51-18.13l7.04-3.32v-9.15l-7.04-3.32Zm-44.72,15.06c-3.96,0-7.16-3.21-7.16-7.16s3.21-7.16,7.16-7.16,7.16,3.21,7.16,7.16-3.21,7.16-7.16,7.16Z"/><polygon class="cls-4" points="816.91 533.03 795.08 520.43 795.08 545.62 816.91 558.23 838.74 545.62 838.74 520.43 816.91 533.03"/><polygon class="cls-7" points="795.08 520.47 795.08 520.49 816.91 533.1 838.74 520.49 838.74 520.47 816.91 507.87 795.08 520.47"/></svg>