<?xml version="1.0" encoding="utf-8"?>
<!-- Generator: Adobe Illustrator 24.2.0, SVG Export Plug-In . SVG Version: 6.00 Build 0)  -->
<svg version="1.1" id="Calque_1" xmlns="http://www.w3.org/2000/svg" xmlns:xlink="http://www.w3.org/1999/xlink" x="0px" y="0px"
	 viewBox="0 0 379.2 312.9" style="enable-background:new 0 0 379.2 312.9;" xml:space="preserve">
<style type="text/css">
	.st0{fill:#C3E1F9;}
	.st1{opacity:0.34;fill:#C3E1F9;enable-background:new    ;}
	.st2{fill:#5AB4EA;}
	.st3{fill:#EFC42A;}
</style>
<g id="Groupe_29" transform="translate(-163.044 -69.869)">
	<g id="Groupe_27" transform="translate(163.044 69.869)">
		<path id="Tracé_114" class="st0" d="M133.5,283.4L112.2,40.5l186.3-16.3l21.3,242.9L133.5,283.4z M118.2,45.5l20.3,232
			l175.4-15.4l-20.3-232L118.2,45.5z"/>
		
			<rect id="Rectangle_12" x="110.3" y="46.8" transform="matrix(0.9992 -4.100652e-02 4.100652e-02 0.9992 -6.6354 8.3821)" class="st1" width="181.5" height="238.3"/>
		<path id="Tracé_115" class="st1" d="M324.6,162.6l-4.7-0.3l8-147.8L151.3,5l-1.4,25.9l-4.7-0.3L146.9,0l186,10.1L324.6,162.6z"/>
		<g id="Groupe_24" transform="translate(0 159.303)">
			<g id="Groupe_23">
				<path id="Tracé_116" class="st2" d="M78.4,8H64.9V5.4c0-2.7-2.2-5-5-5s-5,2.2-5,5l0,0V8H27.1V5.4c0-2.7-2.2-5-5-5s-5,2.2-5,5
					l0,0V8H3.6c-1.8,0-3.2,1.4-3.2,3.2v60.5c0,1.8,1.4,3.2,3.2,3.2c0,0,0,0,0,0h74.8c1.8,0,3.2-1.4,3.2-3.2l0,0V11.2
					C81.6,9.4,80.2,8,78.4,8z M58.2,5.4c0-1,0.9-1.7,1.8-1.7c0.9,0,1.7,0.8,1.7,1.7v7.9c0,1-0.7,1.8-1.7,1.8c-1,0-1.8-0.7-1.8-1.7
					c0,0,0,0,0,0c0,0,0-0.1,0-0.1V5.4z M20.4,5.4c0-1,0.7-1.8,1.7-1.8c1,0,1.8,0.7,1.8,1.7c0,0,0,0,0,0c0,0,0,0.1,0,0.1v7.9
					c0,1-0.7,1.8-1.7,1.8c-1,0-1.8-0.7-1.8-1.7c0,0,0-0.1,0-0.1V5.4z M3.6,11.2h13.6v2.1c0,2.7,2.2,5,5,5c2.7,0,5-2.2,5-5v-2.1H55
					v2.1c0,2.7,2.2,5,5,5s5-2.2,5-5l0,0v-2.1h13.5v13.2H3.6V11.2z M78.4,71.7H3.6V27.5h74.8V71.7z"/>
				<path id="Tracé_117" class="st2" d="M78.4,75.3H3.6c-2,0-3.6-1.6-3.6-3.6V11.2c0-2,1.6-3.6,3.6-3.6h13.2V5.4
					c0-3,2.4-5.4,5.4-5.3c3,0,5.3,2.4,5.3,5.3v2.2h27.1V5.4c0-3,2.4-5.4,5.4-5.3c3,0,5.3,2.4,5.3,5.3v2.2h13.1c2,0,3.6,1.6,3.6,3.6
					v60.5C82,73.7,80.4,75.3,78.4,75.3z M3.6,8.4c-1.6,0-2.8,1.3-2.8,2.8v60.5c0,1.6,1.3,2.8,2.8,2.8h74.8c1.6,0,2.8-1.3,2.8-2.8
					V11.2c0-1.6-1.3-2.8-2.8-2.8H64.5v-3c0-2.5-2-4.6-4.5-4.6c-2.5,0-4.6,2-4.6,4.5c0,0,0,0.1,0,0.1v3H26.7v-3
					c0-2.5-2.1-4.6-4.6-4.6s-4.6,2.1-4.6,4.6v3L3.6,8.4z M78.8,72.1H3.2V27.2h75.6L78.8,72.1z M4,71.3h74V27.9H4L4,71.3z M78.8,24.7
					H3.2V10.8h14.4v2.4c0,2.5,2.1,4.6,4.6,4.6l0,0c2.5,0,4.6-2,4.6-4.6v-2.4h28.6v2.4c0,2.5,2.1,4.6,4.6,4.6s4.6-2.1,4.6-4.6l0,0
					v-2.4h14.3L78.8,24.7z M4,24h74V11.6H65.3v1.7c0,3-2.4,5.4-5.4,5.3c-3,0-5.3-2.4-5.3-5.3v-1.7H27.5v1.7c0,3-2.4,5.4-5.4,5.4l0,0
					c-3,0-5.3-2.4-5.3-5.4v-1.7H4L4,24z M59.9,15.5c-1.2,0-2.1-0.9-2.1-2.1v-8c0-1.2,1-2.1,2.2-2.1c1.1,0,2.1,0.9,2.1,2.1v7.9
					C62.1,14.4,61.2,15.4,59.9,15.5L59.9,15.5z M58.6,5.4v8c0,0.4,0.2,0.7,0.4,1c0.6,0.5,1.4,0.5,2-0.1c0.3-0.3,0.4-0.6,0.4-1V5.4
					c0-0.7-0.6-1.3-1.3-1.3c-0.4,0-0.7,0.1-1,0.4C58.7,4.6,58.6,5,58.6,5.4z M22.2,15.5c-1.2,0-2.1-0.9-2.2-2.1c0,0,0-0.1,0-0.1V5.4
					c0-1.2,0.9-2.2,2.1-2.2c0.6,0,1.1,0.2,1.5,0.6c0.4,0.4,0.7,0.9,0.7,1.5c0,0,0,0.1,0,0.1v7.9C24.3,14.4,23.4,15.4,22.2,15.5
					L22.2,15.5z M22.2,3.9L22.2,3.9c-0.8,0-1.4,0.7-1.4,1.4v8c0,0.8,0.7,1.4,1.4,1.3c0.8,0,1.4-0.7,1.3-1.4c0,0,0,0,0,0v-8
					C23.5,4.5,22.9,3.9,22.2,3.9L22.2,3.9z"/>
			</g>
			<path id="Tracé_118" class="st3" d="M22.9,62.8c0.3,0.2,0.7,0.3,1,0.4h12.8c0.4,0,0.7-0.2,0.9-0.5c0.2-0.3,0.4-0.7,0.3-1.1
				c0-0.4-0.1-0.8-0.4-1.1c-0.2-0.3-0.6-0.5-0.9-0.5H25.8v-1.6c0-0.7,0.3-1.5,0.8-2c0.6-0.8,1.3-1.4,2.1-2l2.9-2.1
				c1-0.8,2-1.6,2.9-2.4c0.9-0.8,1.7-1.8,2.3-2.9c0.6-1.1,0.9-2.4,0.9-3.6c0-2-0.8-3.9-2.2-5.2c-3-2.7-7.5-2.8-10.6-0.3
				c-1.4,1.1-2.2,2.9-2.1,4.6c0,1.7,0.9,2,1.6,2c0.5,0,0.9-0.1,1.3-0.4c0.3-0.2,0.5-0.6,0.5-1c-0.1-1.1,0.3-2.1,1.1-2.8
				c0.8-0.7,1.8-1,2.8-1c1.2-0.1,2.3,0.4,3.1,1.2c0.7,0.8,1.1,1.8,1.1,2.9c0,1.1-0.5,2.2-1.2,3.1c-0.9,1.1-1.9,2-3,2.8L26.6,52
				c-1.1,0.8-2.1,1.8-3,2.9c-0.8,1-1.2,2.1-1.3,3.4v3.5C22.3,62.2,22.5,62.6,22.9,62.8L22.9,62.8z"/>
			<path id="Tracé_119" class="st3" d="M43.5,61.5c1.7,1.3,3.7,2,5.9,1.9c2.1,0.1,4.2-0.6,5.8-2c1.5-1.3,2.2-3.4,2.2-6.1v-0.7
				c0-2.7-0.7-4.6-2.2-5.9c-1.6-1.3-3.7-2-5.8-1.9H46l0.5-7.5h8.3c0.4,0,0.7-0.2,0.9-0.5c0.4-0.7,0.4-1.5,0-2.2
				c-0.2-0.3-0.5-0.5-0.9-0.5H44.5c-0.4,0-0.9,0.2-1,1.3l-0.7,10.2c-0.1,0.3-0.1,0.6-0.1,0.8c0,0.6,0.3,1.4,1.6,1.4h5.1
				c1.2-0.1,2.4,0.4,3.3,1.2c0.9,1,1.3,2.3,1.2,3.6v0.7c0.1,1.3-0.3,2.6-1.2,3.7c-0.9,0.8-2.1,1.3-3.4,1.2c-1.2,0-2.3-0.3-3.3-1
				c-0.8-0.6-1.3-1.6-1.2-2.6c0-0.7-0.3-1.5-1.7-1.5c-0.8-0.1-1.6,0.5-1.7,1.3c0,0.1,0,0.3,0,0.4C41.3,58.6,42.1,60.3,43.5,61.5
				L43.5,61.5z"/>
		</g>
		<rect id="Rectangle_13" x="173.1" y="307.5" class="st0" width="85.9" height="5.5"/>
		<path id="Tracé_120" class="st0" d="M249.9,253.9l-4.3-49.5l49.5-4.3l4.3,49.5L249.9,253.9z M251.5,209.4l3.4,38.6l38.6-3.4
			l-3.4-38.6L251.5,209.4z"/>
		<path id="Tracé_121" class="st2" d="M243.1,183.7l-4.3-49.7l49.7-4.3l4.3,49.7L243.1,183.7z M245,139.2l3.4,38.4l38.4-3.4
			l-3.4-38.4L245,139.2z"/>
		<circle id="Ellipse_2" class="st0" cx="162.4" cy="237.3" r="9.4"/>
		<g id="Groupe_25" transform="translate(35.542 91.366)">
			<path id="Tracé_122" class="st0" d="M13.2,23C6.8,23,1.7,17.8,1.7,11.5C1.7,5.1,6.8-0.1,13.2,0c6.4,0,11.5,5.2,11.5,11.5
				c0,5.6-4.1,10.4-9.6,11.3C14.4,22.9,13.8,23,13.2,23z M13.2,4c-0.4,0-0.8,0-1.3,0.1c-4.1,0.7-6.8,4.5-6.1,8.6
				c0.7,4.1,4.5,6.8,8.6,6.1c4.1-0.7,6.8-4.5,6.1-8.6C20,6.6,16.8,4,13.2,4z"/>
			<path id="Tracé_123" class="st0" d="M11.3,48.5c-2.3,0-4.6-0.2-6.9-0.5C1.9,47.6,0,45.4,0,42.9c0-10.2,8.2-18.4,18.4-18.4
				c7.9,0,14.9,5,17.4,12.4c0.8,2.4-0.2,5.1-2.5,6.2C26.5,46.6,19,48.5,11.3,48.5L11.3,48.5z M18.5,28.4c-0.8,0-1.6,0.1-2.4,0.2
				C9.1,29.7,3.9,35.8,4,42.9c0,0.6,0.4,1.1,1,1.2c9.1,1.3,18.4-0.3,26.6-4.5l0,0c0.5-0.3,0.8-0.9,0.6-1.4
				C30.1,32.3,24.6,28.4,18.5,28.4L18.5,28.4z"/>
		</g>
		<g id="Groupe_26" transform="translate(71.559 88.867)">
			<path id="Tracé_124" class="st3" d="M11.2,17c-1.3,0-2.3-0.9-2.6-2.1L5.5-0.9C5.2-2.3,6.1-3.7,7.5-4c1.4-0.3,2.8,0.6,3.1,2.1
				l0,0l3.2,15.8c0.3,1.4-0.6,2.8-2.1,3.1c0,0,0,0,0,0C11.6,17,11.4,17,11.2,17z"/>
			<path id="Tracé_125" class="st3" d="M1.8,10.7c-1.5,0-2.6-1.2-2.6-2.6c0-1.3,0.9-2.3,2.1-2.6L17,2.3c1.4-0.3,2.8,0.6,3.1,2.1
				s-0.6,2.8-2.1,3.1l0,0L2.3,10.7C2.1,10.7,1.9,10.7,1.8,10.7z"/>
		</g>
		<path id="Tracé_126" class="st3" d="M264.7,168.9c-0.7,0-1.4-0.2-2-0.6l-15.5-9.6c-1.8-1.1-2.3-3.4-1.2-5.2
			c1.1-1.8,3.4-2.3,5.2-1.2l0,0l12.1,7.5l18.5-33.3c1-1.8,3.4-2.4,5.2-1.4c1.8,1,2.4,3.3,1.4,5.1L268,167
			C267.3,168.2,266,168.9,264.7,168.9L264.7,168.9z"/>
		<path id="Tracé_127" class="st2" d="M138.7,78.6c-1.8,0-3.3-1.5-3.3-3.3c0-1.7,1.3-3.1,3-3.3l73.3-7.3c1.8-0.2,3.4,1.2,3.6,3
			s-1.2,3.4-3,3.6l0,0l-73.3,7.3C139,78.6,138.9,78.6,138.7,78.6z"/>
		<path id="Tracé_128" class="st2" d="M146,128c-1.8,0-3.3-1.5-3.3-3.3c0-1.7,1.3-3.1,3-3.3l36.4-3.6c1.8-0.2,3.4,1.2,3.6,3
			c0.2,1.8-1.2,3.4-3,3.6l0,0l-36.4,3.6C146.2,128,146.1,128,146,128z"/>
		<path id="Tracé_129" class="st2" d="M142.5,102.6c-1.8,0-3.3-1.5-3.3-3.3c0-1.7,1.3-3.1,3-3.3l103.7-10.3c1.8-0.2,3.4,1.2,3.6,3
			s-1.2,3.4-3,3.6l-103.7,10.2C142.7,102.6,142.6,102.6,142.5,102.6z"/>
	</g>
	<g id="Groupe_28" transform="translate(454.593 208.78)">
		<path id="Tracé_130" class="st2" d="M21,77.8c-0.5,0-1-0.2-1.4-0.6L7.1,64.7c-0.8-0.8-0.8-2,0-2.8l46.6-46.6c0.8-0.8,2-0.8,2.8,0
			c0,0,0,0,0,0L69,27.9c0.8,0.8,0.8,2,0,2.8c0,0,0,0,0,0L22.4,77.2C22,77.6,21.5,77.8,21,77.8z M11.2,63.3l9.8,9.8l43.8-43.8
			l-9.8-9.8L11.2,63.3z"/>
		<path id="Tracé_131" class="st2" d="M3.7,84C1.7,84,0,82.3,0,80.3c0-0.5,0.1-0.9,0.3-1.3l6.4-16.4c0.4-1,1.5-1.5,2.5-1.2
			c1,0.4,1.5,1.5,1.2,2.5c0,0,0,0.1,0,0.1L4,80l16.3-6c1-0.4,2.1,0.2,2.5,1.2c0.4,1-0.2,2.1-1.2,2.5L5,83.8C4.6,84,4.2,84,3.7,84z"
			/>
	</g>
	<path id="Tracé_132" class="st2" d="M522.2,240c-1.1,0-2-0.9-2-2c0-0.5,0.2-1,0.6-1.4c2.8-2.8,2.8-7.3,0-10.1
		c-2.6-2.6-6.8-2.6-9.4,0l-0.3,0.3c-0.7,0.8-2,0.8-2.8,0c-0.8-0.7-0.8-2,0-2.8c0,0,0,0,0,0l0.3-0.3c4.1-4.1,10.8-4.1,15,0
		c4.3,4.3,4.3,11.3,0,15.6C523.2,239.8,522.7,240,522.2,240z"/>
</g>
</svg>
